<mxfile host="app.diagrams.net" agent="Mozilla/5.0 (Windows NT 10.0; Win64; x64) AppleWebKit/537.36 (KHTML, like Gecko) Chrome/135.0.0.0 Safari/537.36" version="26.1.0">
  <diagram name="Page-1" id="o40QZSptPR52_Nfpsl2L">
    <mxGraphModel dx="2867" dy="1256" grid="1" gridSize="10" guides="1" tooltips="1" connect="1" arrows="1" fold="1" page="1" pageScale="1" pageWidth="850" pageHeight="1100" math="0" shadow="0">
      <root>
        <mxCell id="0" />
        <mxCell id="1" parent="0" />
        <mxCell id="jWa2nlvpywYhJVZAadZS-1" value="" style="html=1;dashed=0;whiteSpace=wrap;" vertex="1" parent="1">
          <mxGeometry x="320" y="20" width="265" height="620" as="geometry" />
        </mxCell>
        <mxCell id="jWa2nlvpywYhJVZAadZS-2" value="Login" style="ellipse;whiteSpace=wrap;html=1;" vertex="1" parent="1">
          <mxGeometry x="394" y="60" width="117" height="40" as="geometry" />
        </mxCell>
        <mxCell id="jWa2nlvpywYhJVZAadZS-3" value="View Assigned Patients" style="ellipse;whiteSpace=wrap;html=1;" vertex="1" parent="1">
          <mxGeometry x="416" y="110" width="121" height="60" as="geometry" />
        </mxCell>
        <mxCell id="jWa2nlvpywYhJVZAadZS-4" value="View All Appointments" style="ellipse;whiteSpace=wrap;html=1;" vertex="1" parent="1">
          <mxGeometry x="367" y="510" width="150" height="60" as="geometry" />
        </mxCell>
        <mxCell id="jWa2nlvpywYhJVZAadZS-5" value="Search Patient by ID" style="ellipse;whiteSpace=wrap;html=1;" vertex="1" parent="1">
          <mxGeometry x="381" y="390" width="130" height="50" as="geometry" />
        </mxCell>
        <mxCell id="jWa2nlvpywYhJVZAadZS-6" value="Search Patient History" style="ellipse;whiteSpace=wrap;html=1;" vertex="1" parent="1">
          <mxGeometry x="430" y="230" width="130" height="50" as="geometry" />
        </mxCell>
        <mxCell id="jWa2nlvpywYhJVZAadZS-7" value="Schedule Appointment" style="ellipse;whiteSpace=wrap;html=1;" vertex="1" parent="1">
          <mxGeometry x="400" y="450" width="142" height="50" as="geometry" />
        </mxCell>
        <mxCell id="jWa2nlvpywYhJVZAadZS-8" value="Register New User" style="ellipse;whiteSpace=wrap;html=1;" vertex="1" parent="1">
          <mxGeometry x="367" y="290" width="117" height="40" as="geometry" />
        </mxCell>
        <mxCell id="jWa2nlvpywYhJVZAadZS-9" value="View All Patients" style="ellipse;whiteSpace=wrap;html=1;" vertex="1" parent="1">
          <mxGeometry x="416" y="340" width="120" height="40" as="geometry" />
        </mxCell>
        <mxCell id="jWa2nlvpywYhJVZAadZS-10" value="System" style="text;html=1;align=center;verticalAlign=middle;whiteSpace=wrap;rounded=0;" vertex="1" parent="1">
          <mxGeometry x="420" y="20" width="60" height="30" as="geometry" />
        </mxCell>
        <mxCell id="jWa2nlvpywYhJVZAadZS-11" value="Add Patient Report" style="ellipse;whiteSpace=wrap;html=1;" vertex="1" parent="1">
          <mxGeometry x="359" y="170" width="121" height="60" as="geometry" />
        </mxCell>
        <mxCell id="jWa2nlvpywYhJVZAadZS-13" value="Logout" style="ellipse;whiteSpace=wrap;html=1;" vertex="1" parent="1">
          <mxGeometry x="384.5" y="590" width="123" height="40" as="geometry" />
        </mxCell>
        <mxCell id="jWa2nlvpywYhJVZAadZS-26" style="edgeStyle=entityRelationEdgeStyle;rounded=0;orthogonalLoop=1;jettySize=auto;html=1;entryX=0;entryY=0.5;entryDx=0;entryDy=0;" edge="1" parent="1" source="jWa2nlvpywYhJVZAadZS-14" target="jWa2nlvpywYhJVZAadZS-8">
          <mxGeometry relative="1" as="geometry" />
        </mxCell>
        <mxCell id="jWa2nlvpywYhJVZAadZS-27" style="edgeStyle=entityRelationEdgeStyle;rounded=0;orthogonalLoop=1;jettySize=auto;html=1;" edge="1" parent="1" source="jWa2nlvpywYhJVZAadZS-14" target="jWa2nlvpywYhJVZAadZS-9">
          <mxGeometry relative="1" as="geometry" />
        </mxCell>
        <mxCell id="jWa2nlvpywYhJVZAadZS-29" style="edgeStyle=entityRelationEdgeStyle;rounded=0;orthogonalLoop=1;jettySize=auto;html=1;entryX=0;entryY=0.5;entryDx=0;entryDy=0;" edge="1" parent="1" source="jWa2nlvpywYhJVZAadZS-14" target="jWa2nlvpywYhJVZAadZS-5">
          <mxGeometry relative="1" as="geometry" />
        </mxCell>
        <mxCell id="jWa2nlvpywYhJVZAadZS-30" style="edgeStyle=entityRelationEdgeStyle;rounded=0;orthogonalLoop=1;jettySize=auto;html=1;entryX=0;entryY=0.5;entryDx=0;entryDy=0;" edge="1" parent="1" source="jWa2nlvpywYhJVZAadZS-14" target="jWa2nlvpywYhJVZAadZS-7">
          <mxGeometry relative="1" as="geometry" />
        </mxCell>
        <mxCell id="jWa2nlvpywYhJVZAadZS-31" style="edgeStyle=entityRelationEdgeStyle;rounded=0;orthogonalLoop=1;jettySize=auto;html=1;entryX=0;entryY=0.5;entryDx=0;entryDy=0;" edge="1" parent="1" source="jWa2nlvpywYhJVZAadZS-14" target="jWa2nlvpywYhJVZAadZS-4">
          <mxGeometry relative="1" as="geometry" />
        </mxCell>
        <mxCell id="jWa2nlvpywYhJVZAadZS-32" style="edgeStyle=entityRelationEdgeStyle;rounded=0;orthogonalLoop=1;jettySize=auto;html=1;entryX=0;entryY=0.5;entryDx=0;entryDy=0;" edge="1" parent="1" source="jWa2nlvpywYhJVZAadZS-14" target="jWa2nlvpywYhJVZAadZS-13">
          <mxGeometry relative="1" as="geometry" />
        </mxCell>
        <mxCell id="jWa2nlvpywYhJVZAadZS-14" value="Admin" style="shape=umlActor;verticalLabelPosition=bottom;verticalAlign=top;html=1;" vertex="1" parent="1">
          <mxGeometry x="190" y="400" width="30" height="60" as="geometry" />
        </mxCell>
        <mxCell id="jWa2nlvpywYhJVZAadZS-22" style="edgeStyle=entityRelationEdgeStyle;rounded=0;orthogonalLoop=1;jettySize=auto;html=1;entryX=1;entryY=0.5;entryDx=0;entryDy=0;" edge="1" parent="1" source="jWa2nlvpywYhJVZAadZS-15" target="jWa2nlvpywYhJVZAadZS-2">
          <mxGeometry relative="1" as="geometry" />
        </mxCell>
        <mxCell id="jWa2nlvpywYhJVZAadZS-23" style="edgeStyle=entityRelationEdgeStyle;rounded=0;orthogonalLoop=1;jettySize=auto;html=1;" edge="1" parent="1" source="jWa2nlvpywYhJVZAadZS-15" target="jWa2nlvpywYhJVZAadZS-3">
          <mxGeometry relative="1" as="geometry" />
        </mxCell>
        <mxCell id="jWa2nlvpywYhJVZAadZS-24" style="edgeStyle=entityRelationEdgeStyle;rounded=0;orthogonalLoop=1;jettySize=auto;html=1;" edge="1" parent="1" source="jWa2nlvpywYhJVZAadZS-15" target="jWa2nlvpywYhJVZAadZS-11">
          <mxGeometry relative="1" as="geometry" />
        </mxCell>
        <mxCell id="jWa2nlvpywYhJVZAadZS-25" style="edgeStyle=entityRelationEdgeStyle;rounded=0;orthogonalLoop=1;jettySize=auto;html=1;entryX=1;entryY=0.5;entryDx=0;entryDy=0;" edge="1" parent="1" source="jWa2nlvpywYhJVZAadZS-15" target="jWa2nlvpywYhJVZAadZS-6">
          <mxGeometry relative="1" as="geometry" />
        </mxCell>
        <mxCell id="jWa2nlvpywYhJVZAadZS-33" style="edgeStyle=entityRelationEdgeStyle;rounded=0;orthogonalLoop=1;jettySize=auto;html=1;entryX=1;entryY=0.5;entryDx=0;entryDy=0;" edge="1" parent="1" source="jWa2nlvpywYhJVZAadZS-15" target="jWa2nlvpywYhJVZAadZS-13">
          <mxGeometry relative="1" as="geometry" />
        </mxCell>
        <mxCell id="jWa2nlvpywYhJVZAadZS-15" value="Doctor" style="shape=umlActor;verticalLabelPosition=bottom;verticalAlign=top;html=1;" vertex="1" parent="1">
          <mxGeometry x="670" y="190" width="30" height="60" as="geometry" />
        </mxCell>
      </root>
    </mxGraphModel>
  </diagram>
</mxfile>
